<svg font-family="sans-serif" viewBox="0 0 753 367" xmlns:xlink="http://www.w3.org/1999/xlink" text-decoration="none" font-style="normal" width="753px" xmlns="http://www.w3.org/2000/svg" font-size="15" version="1.1" font-weight="normal" height="367px"><title>Wuhan Tianhe International Airport2023年的温度历史</title><defs><clipPath id="plot-sample-bounds-3"><rect y="0" x="75.8" height="345" width="601.3"></rect></clipPath><clipPath id="plot-sample-bounds-scaled-3"><rect y="0" x="758.3" height="3450" width="6013.5"></rect></clipPath></defs><g transform="scale(0.1)"><path fill-opacity="0.188" stroke="none" d="M767,2942l16,2l17,-1l16,2l17,2l16,1l17,6l16,5l17,-1l16,0l17,2l16,2l17,0l16,1l17,1l16,3l17,0l16,0l17,-3l16,-3l17,-4l16,0l17,-2l16,-2l17,1l17,-3l16,-5l17,-3l16,-6l17,-7l16,-5l17,-3l16,-4l17,-1l16,-3l17,-7l16,-6l17,-11l16,-11l17,-7l16,-6l17,-8l16,-6l17,-6l16,-9l17,-10l16,-8l17,-5l17,-6l16,-7l17,-5l16,-5l17,-8l16,-7l17,-7l16,-10l17,-11l16,-9l17,-11l16,-8l17,-8l16,-11l17,-10l16,-10l17,-9l16,-11l17,-5l16,-6l17,-6l16,-8l17,-12l16,-13l17,-14l17,-14l16,-13l17,-10l16,-11l17,-13l16,-16l17,-14l16,-12l17,-12l16,-13l17,-14l16,-13l17,-13l16,-11l17,-9l16,-9l17,-13l16,-14l17,-12l16,-9l17,-12l16,-14l17,-15l16,-15l17,-15l17,-18l16,-16l17,-12l16,-12l17,-11l16,-11l17,-12l16,-14l17,-13l16,-8l17,-13l16,-8l17,-14l16,-12l17,-16l16,-13l17,-9l16,-12l17,-11l16,-12l17,-12l16,-13l17,-11l17,-12l16,-13l17,-14l16,-11l17,-8l16,-11l17,-11l16,-9l17,-9l16,-8l17,-13l16,-12l17,-8l16,-9l17,-11l16,-10l17,-10l16,-14l17,-12l16,-12l17,-8l16,-8l17,-8l16,-11l17,-10l17,-11l16,-11l17,-10l16,-12l17,-13l16,-9l17,-8l16,-5l17,-8l16,-10l17,-11l16,-11l17,-10l16,-10l17,-9l16,-10l17,-9l16,-9l17,-9l16,-8l17,-9l16,-7l17,-7l16,-7l17,-7l17,-6l16,-9l17,-8l16,-7l17,-4l16,-7l17,-6l16,-7l17,-2l16,-4l17,-4l16,-6l17,-5l16,-8l17,-5l16,-4l17,-3l16,-6l17,-5l16,-3l17,-7l16,-4l17,-4l17,-4l16,-5l17,-3l16,-3l17,-4l16,-4l17,-5l16,-1l17,-2l16,-2l17,-2l16,-1l17,0l16,1l17,-1l16,0l17,1l16,2l17,4l16,5l17,4l16,3l17,4l16,6l17,7l17,8l16,6l17,4l16,3l17,5l16,7l17,7l16,8l17,6l16,7l17,7l16,11l17,11l16,8l17,9l16,10l17,8l16,10l17,9l16,9l17,11l16,11l17,9l16,8l17,7l17,8l16,7l17,10l16,11l17,6l16,6l17,8l16,10l17,11l16,13l17,14l16,13l17,11l16,11l17,16l16,15l17,14l16,12l17,12l16,12l17,12l16,9l17,10l17,9l16,9l17,9l16,9l17,11l16,12l17,12l16,14l17,14l16,14l17,14l16,14l17,14l16,15l17,14l16,15l17,13l16,13l17,15l16,14l17,13l16,12l17,13l16,11l17,10l17,10l16,10l17,14l16,17l17,20l16,19l17,19l16,18l17,16l16,14l17,14l16,14l17,15l16,15l17,12l16,14l17,15l16,10l17,12l16,11l17,12l16,12l17,14l16,17l17,8l17,13l16,17l17,17l16,12l17,11l16,18l17,17l16,13l17,12l16,12l17,6l16,11l17,8l16,10l17,13l16,14l17,14l16,11l17,10l16,9l17,13l16,10l17,9l17,13l16,9l17,12l16,15l17,9l16,9l17,5l16,11l17,6l16,6l17,3l16,6l17,8l16,4l17,4l16,7l17,4l16,2l17,6l16,1l17,4l16,6l17,2l16,4l0,-461l-16,-5l-17,-4l-16,-7l-17,-9l-16,-6l-17,-5l-16,-6l-17,-5l-16,-5l-17,-2l-16,-3l-17,-5l-16,-2l-17,-8l-16,-8l-17,-9l-16,-9l-17,-9l-16,-10l-17,-7l-16,-8l-17,-13l-16,-11l-17,-9l-17,-11l-16,-10l-17,-8l-16,-11l-17,-13l-16,-13l-17,-16l-16,-12l-17,-15l-16,-13l-17,-13l-16,-12l-17,-17l-16,-16l-17,-16l-16,-17l-17,-20l-16,-16l-17,-14l-16,-16l-17,-14l-16,-11l-17,-12l-17,-16l-16,-13l-17,-9l-16,-13l-17,-13l-16,-10l-17,-14l-16,-12l-17,-16l-16,-17l-17,-13l-16,-13l-17,-10l-16,-13l-17,-11l-16,-11l-17,-14l-16,-10l-17,-11l-16,-14l-17,-10l-16,-12l-17,-11l-16,-12l-17,-7l-17,-9l-16,-14l-17,-9l-16,-12l-17,-12l-16,-12l-17,-10l-16,-10l-17,-16l-16,-11l-17,-12l-16,-10l-17,-12l-16,-11l-17,-8l-16,-8l-17,-11l-16,-12l-17,-14l-16,-14l-17,-10l-16,-10l-17,-9l-16,-10l-17,-11l-17,-10l-16,-12l-17,-8l-16,-10l-17,-10l-16,-13l-17,-10l-16,-10l-17,-12l-16,-11l-17,-11l-16,-12l-17,-12l-16,-10l-17,-8l-16,-12l-17,-9l-16,-12l-17,-8l-16,-10l-17,-9l-16,-9l-17,-7l-17,-9l-16,-5l-17,-8l-16,-10l-17,-9l-16,-10l-17,-9l-16,-8l-17,-8l-16,-6l-17,-6l-16,-7l-17,-8l-16,-8l-17,-6l-16,-6l-17,-8l-16,-7l-17,-6l-16,-6l-17,-4l-16,-5l-17,-6l-16,-2l-17,-7l-17,-2l-16,-5l-17,-4l-16,-5l-17,-4l-16,-5l-17,-3l-16,-3l-17,-2l-16,0l-17,0l-16,-1l-17,1l-16,-1l-17,-2l-16,1l-17,-1l-16,3l-17,1l-16,1l-17,2l-16,0l-17,2l-16,4l-17,4l-17,2l-16,5l-17,4l-16,9l-17,7l-16,5l-17,4l-16,6l-17,7l-16,5l-17,7l-16,5l-17,5l-16,7l-17,9l-16,6l-17,7l-16,8l-17,8l-16,10l-17,7l-16,9l-17,6l-17,5l-16,7l-17,6l-16,8l-17,11l-16,9l-17,8l-16,7l-17,10l-16,7l-17,7l-16,2l-17,2l-16,6l-17,7l-16,9l-17,6l-16,8l-17,11l-16,9l-17,12l-16,7l-17,4l-16,8l-17,7l-17,3l-16,5l-17,5l-16,5l-17,7l-16,7l-17,6l-16,7l-17,6l-16,5l-17,4l-16,5l-17,6l-16,5l-17,4l-16,10l-17,13l-16,8l-17,9l-16,8l-17,8l-16,6l-17,10l-16,8l-17,6l-17,9l-16,9l-17,8l-16,12l-17,10l-16,12l-17,14l-16,11l-17,12l-16,12l-17,10l-16,14l-17,14l-16,15l-17,15l-16,10l-17,11l-16,9l-17,12l-16,14l-17,15l-16,12l-17,10l-17,15l-16,18l-17,14l-16,12l-17,12l-16,8l-17,12l-16,10l-17,10l-16,10l-17,13l-16,8l-17,10l-16,10l-17,12l-16,9l-17,11l-16,9l-17,11l-16,10l-17,11l-16,11l-17,13l-16,15l-17,16l-17,15l-16,14l-17,10l-16,10l-17,8l-16,11l-17,6l-16,8l-17,12l-16,13l-17,12l-16,14l-17,10l-16,8l-17,7l-16,6l-17,8l-16,10l-17,10l-16,8l-17,8l-16,11l-17,8l-16,12l-17,12l-17,14l-16,10l-17,8l-16,6l-17,5l-16,5l-17,8l-16,8l-17,10l-16,7l-17,7l-16,8l-17,8l-16,8l-17,2l-16,4l-17,5l-16,8l-17,9l-16,11l-17,10l-16,10l-17,8l-17,8l-16,5l-17,6l-16,6l-17,3l-16,4l-17,0l-16,-1l-17,-5l-16,2l-17,-1l-16,4l-17,3l-16,4l-17,-2l-16,-4l-17,-3l-16,-1l-17,-1l-16,-4l-17,-1l-16,-4l-17,-3l-16,-1Z" fill="#4646b9"></path><path fill-opacity="0.188" stroke="none" d="M767,2826l16,1l17,1l16,2l17,0l16,4l17,4l16,5l17,4l16,2l17,1l16,3l17,1l16,0l17,-3l16,0l17,-1l16,0l17,-2l16,-2l17,-4l16,-2l17,-2l16,-1l17,-1l17,0l16,-7l17,-5l16,-4l17,-8l16,-4l17,-4l16,-2l17,-3l16,-5l17,-7l16,-11l17,-10l16,-12l17,-5l16,-7l17,-5l16,-6l17,-7l16,-9l17,-8l16,-6l17,-5l17,-8l16,-8l17,-8l16,-8l17,-10l16,-9l17,-10l16,-12l17,-10l16,-7l17,-6l16,-10l17,-9l16,-9l17,-8l16,-10l17,-10l16,-9l17,-6l16,-5l17,-8l16,-7l17,-11l16,-13l17,-12l17,-14l16,-13l17,-11l16,-11l17,-12l16,-15l17,-13l16,-12l17,-14l16,-13l17,-11l16,-13l17,-13l16,-10l17,-13l16,-12l17,-14l16,-14l17,-13l16,-13l17,-16l16,-16l17,-14l16,-14l17,-16l17,-15l16,-15l17,-16l16,-14l17,-11l16,-13l17,-14l16,-12l17,-13l16,-12l17,-13l16,-14l17,-15l16,-11l17,-11l16,-12l17,-12l16,-10l17,-11l16,-10l17,-9l16,-8l17,-10l17,-10l16,-10l17,-9l16,-8l17,-10l16,-11l17,-12l16,-10l17,-11l16,-8l17,-9l16,-10l17,-12l16,-11l17,-7l16,-7l17,-9l16,-11l17,-10l16,-8l17,-5l16,-9l17,-8l16,-9l17,-9l17,-9l16,-9l17,-11l16,-12l17,-11l16,-10l17,-10l16,-8l17,-9l16,-9l17,-7l16,-9l17,-8l16,-5l17,-7l16,-9l17,-8l16,-7l17,-7l16,-7l17,-8l16,-9l17,-7l16,-6l17,-4l17,-5l16,-7l17,-8l16,-5l17,-6l16,-7l17,-6l16,-7l17,-4l16,-4l17,-5l16,-4l17,-6l16,-2l17,-5l16,-7l17,-5l16,-5l17,-5l16,-6l17,-8l16,-7l17,-7l17,-6l16,-3l17,-3l16,-5l17,-2l16,-3l17,-5l16,-2l17,-4l16,-3l17,-3l16,-2l17,-2l16,-2l17,-2l16,-1l17,3l16,2l17,2l16,2l17,6l16,2l17,2l16,5l17,5l17,6l16,7l17,5l16,5l17,6l16,7l17,6l16,5l17,6l16,9l17,6l16,8l17,9l16,7l17,7l16,10l17,11l16,11l17,11l16,13l17,13l16,11l17,9l16,8l17,9l17,11l16,8l17,8l16,12l17,10l16,6l17,10l16,8l17,10l16,11l17,13l16,15l17,11l16,12l17,14l16,13l17,14l16,14l17,12l16,14l17,11l16,11l17,10l17,6l16,8l17,9l16,9l17,9l16,11l17,12l16,11l17,12l16,9l17,12l16,11l17,11l16,13l17,14l16,14l17,15l16,16l17,13l16,11l17,14l16,14l17,10l16,11l17,10l17,9l16,9l17,8l16,14l17,17l16,18l17,17l16,14l17,16l16,14l17,15l16,15l17,15l16,14l17,15l16,15l17,13l16,13l17,14l16,11l17,9l16,12l17,15l16,15l17,12l17,14l16,15l17,14l16,15l17,13l16,12l17,15l16,16l17,15l16,12l17,9l16,9l17,13l16,13l17,13l16,13l17,13l16,10l17,10l16,13l17,10l16,11l17,13l17,11l16,14l17,13l16,12l17,9l16,6l17,4l16,8l17,8l16,9l17,4l16,6l17,7l16,8l17,6l16,6l17,9l16,6l17,5l16,5l17,2l16,5l17,3l16,3l0,-244l-16,-8l-17,-5l-16,-6l-17,-4l-16,-6l-17,-6l-16,-6l-17,-6l-16,-5l-17,-4l-16,-4l-17,-6l-16,-5l-17,-9l-16,-10l-17,-10l-16,-8l-17,-8l-16,-9l-17,-9l-16,-10l-17,-9l-16,-11l-17,-11l-17,-11l-16,-11l-17,-8l-16,-10l-17,-11l-16,-10l-17,-13l-16,-9l-17,-13l-16,-12l-17,-12l-16,-14l-17,-12l-16,-13l-17,-18l-16,-17l-17,-18l-16,-14l-17,-12l-16,-14l-17,-13l-16,-10l-17,-12l-17,-15l-16,-12l-17,-12l-16,-12l-17,-12l-16,-14l-17,-12l-16,-9l-17,-12l-16,-13l-17,-15l-16,-13l-17,-13l-16,-16l-17,-13l-16,-13l-17,-14l-16,-13l-17,-14l-16,-12l-17,-14l-16,-11l-17,-7l-16,-9l-17,-9l-17,-12l-16,-12l-17,-12l-16,-13l-17,-14l-16,-11l-17,-10l-16,-12l-17,-14l-16,-12l-17,-11l-16,-11l-17,-10l-16,-12l-17,-10l-16,-11l-17,-12l-16,-11l-17,-10l-16,-11l-17,-10l-16,-10l-17,-10l-16,-9l-17,-7l-17,-9l-16,-13l-17,-12l-16,-15l-17,-11l-16,-12l-17,-11l-16,-12l-17,-11l-16,-12l-17,-11l-16,-10l-17,-12l-16,-11l-17,-9l-16,-10l-17,-11l-16,-11l-17,-11l-16,-11l-17,-9l-16,-11l-17,-10l-17,-9l-16,-10l-17,-9l-16,-10l-17,-12l-16,-10l-17,-12l-16,-11l-17,-9l-16,-6l-17,-5l-16,-6l-17,-9l-16,-9l-17,-7l-16,-5l-17,-7l-16,-8l-17,-7l-16,-7l-17,-6l-16,-5l-17,-6l-16,-5l-17,-7l-17,-3l-16,-4l-17,-3l-16,-3l-17,-3l-16,-5l-17,-3l-16,-2l-17,-2l-16,-2l-17,0l-16,0l-17,2l-16,-1l-17,-1l-16,1l-17,-1l-16,2l-17,1l-16,3l-17,2l-16,2l-17,2l-16,3l-17,5l-17,4l-16,5l-17,5l-16,7l-17,8l-16,8l-17,5l-16,5l-17,5l-16,6l-17,6l-16,7l-17,5l-16,7l-17,9l-16,7l-17,10l-16,8l-17,8l-16,9l-17,8l-16,7l-17,5l-17,7l-16,8l-17,7l-16,6l-17,8l-16,8l-17,8l-16,7l-17,9l-16,7l-17,9l-16,4l-17,2l-16,6l-17,7l-16,7l-17,7l-16,8l-17,8l-16,10l-17,11l-16,12l-17,5l-16,7l-17,5l-17,2l-16,5l-17,6l-16,6l-17,6l-16,9l-17,10l-16,6l-17,8l-16,9l-17,7l-16,5l-17,7l-16,10l-17,9l-16,8l-17,11l-16,10l-17,11l-16,11l-17,9l-16,9l-17,9l-16,7l-17,10l-17,7l-16,8l-17,7l-16,11l-17,11l-16,13l-17,16l-16,10l-17,11l-16,13l-17,12l-16,11l-17,13l-16,15l-17,12l-16,13l-17,12l-16,15l-17,11l-16,13l-17,12l-16,13l-17,12l-17,15l-16,16l-17,11l-16,12l-17,13l-16,12l-17,15l-16,9l-17,13l-16,11l-17,13l-16,8l-17,10l-16,10l-17,12l-16,14l-17,15l-16,13l-17,10l-16,9l-17,11l-16,11l-17,11l-16,13l-17,13l-17,12l-16,11l-17,8l-16,10l-17,10l-16,7l-17,8l-16,8l-17,13l-16,13l-17,10l-16,11l-17,8l-16,8l-17,5l-16,7l-17,7l-16,15l-17,11l-16,9l-17,7l-16,11l-17,8l-16,9l-17,14l-17,13l-16,11l-17,10l-16,8l-17,6l-16,6l-17,10l-16,12l-17,12l-16,7l-17,8l-16,8l-17,8l-16,5l-17,6l-16,5l-17,5l-16,6l-17,9l-16,12l-17,10l-16,8l-17,7l-17,2l-16,2l-17,5l-16,6l-17,2l-16,2l-17,-2l-16,-2l-17,-1l-16,1l-17,-1l-16,1l-17,2l-16,0l-17,-3l-16,-4l-17,-4l-16,-2l-17,-4l-16,-4l-17,-3l-16,-3l-17,-5l-16,-5Z" fill="#4646b9"></path><g clip-path="url(#plot-sample-bounds-scaled-3)"><path stroke-width="20" stroke="#4646b9" d="M767,2713l16,2l17,3l16,2l17,3l16,3l17,4l16,3l17,3l16,2l17,2l16,0l17,-1l16,-1l17,-1l16,1l17,1l16,1l17,-1l16,-2l17,-3l16,-4l17,-4l16,-3l17,-2l17,-4l16,-7l17,-8l16,-7l17,-8l16,-6l17,-5l16,-4l17,-4l16,-6l17,-8l16,-9l17,-9l16,-9l17,-9l16,-9l17,-8l16,-6l17,-6l16,-8l17,-9l16,-9l17,-10l17,-9l16,-10l17,-9l16,-8l17,-8l16,-9l17,-10l16,-12l17,-9l16,-7l17,-7l16,-8l17,-9l16,-10l17,-10l16,-11l17,-10l16,-8l17,-6l16,-7l17,-9l16,-9l17,-10l16,-12l17,-12l17,-14l16,-13l17,-12l16,-12l17,-12l16,-12l17,-12l16,-12l17,-13l16,-14l17,-12l16,-11l17,-12l16,-9l17,-11l16,-11l17,-14l16,-13l17,-13l16,-12l17,-14l16,-13l17,-14l16,-16l17,-15l17,-13l16,-15l17,-14l16,-13l17,-12l16,-13l17,-13l16,-12l17,-13l16,-13l17,-12l16,-12l17,-13l16,-13l17,-12l16,-10l17,-13l16,-11l17,-11l16,-11l17,-9l16,-10l17,-8l17,-9l16,-10l17,-10l16,-8l17,-10l16,-10l17,-11l16,-10l17,-10l16,-9l17,-8l16,-9l17,-8l16,-7l17,-7l16,-9l17,-7l16,-9l17,-10l16,-7l17,-6l16,-6l17,-8l16,-7l17,-6l17,-8l16,-9l17,-7l16,-11l17,-11l16,-10l17,-10l16,-7l17,-8l16,-9l17,-8l16,-7l17,-5l16,-6l17,-7l16,-8l17,-9l16,-8l17,-7l16,-8l17,-9l16,-7l17,-7l16,-8l17,-6l17,-5l16,-8l17,-8l16,-7l17,-7l16,-8l17,-8l16,-6l17,-7l16,-5l17,-5l16,-5l17,-5l16,-4l17,-6l16,-6l17,-5l16,-5l17,-7l16,-7l17,-6l16,-5l17,-5l17,-5l16,-4l17,-3l16,-3l17,-2l16,-2l17,-3l16,-2l17,-2l16,-1l17,-1l16,-1l17,-1l16,0l17,-1l16,0l17,2l16,2l17,2l16,4l17,4l16,3l17,3l16,5l17,4l17,6l16,5l17,6l16,5l17,6l16,8l17,6l16,7l17,7l16,7l17,6l16,8l17,10l16,6l17,7l16,9l17,8l16,11l17,10l16,10l17,12l16,9l17,10l16,8l17,9l17,9l16,10l17,9l16,10l17,10l16,9l17,9l16,10l17,10l16,11l17,11l16,12l17,10l16,12l17,12l16,13l17,12l16,12l17,12l16,13l17,12l16,11l17,10l17,8l16,9l17,10l16,10l17,11l16,11l17,11l16,13l17,11l16,11l17,10l16,12l17,11l16,13l17,13l16,13l17,13l16,14l17,12l16,12l17,14l16,13l17,12l16,12l17,10l17,10l16,9l17,10l16,13l17,15l16,15l17,15l16,14l17,14l16,13l17,13l16,15l17,14l16,14l17,14l16,14l17,13l16,12l17,12l16,13l17,11l16,12l17,13l16,14l17,13l17,14l16,13l17,14l16,14l17,13l16,14l17,17l16,17l17,15l16,13l17,11l16,12l17,12l16,13l17,13l16,12l17,14l16,10l17,11l16,11l17,9l16,11l17,12l17,12l16,11l17,11l16,11l17,10l16,8l17,7l16,9l17,8l16,9l17,7l16,5l17,6l16,6l17,5l16,5l17,7l16,6l17,5l16,5l17,4l16,5l17,3l16,5" fill="none" stroke-opacity="0.3764705882352941"></path></g><path fill-opacity="0.188" stroke="none" d="M767,2604l16,9l17,3l16,7l17,4l16,5l17,2l16,2l17,6l16,0l17,3l16,5l17,4l16,7l17,9l16,5l17,0l16,0l17,1l16,-1l17,1l16,0l17,-1l16,0l17,0l17,-1l16,-2l17,-2l16,-5l17,-6l16,-1l17,-6l16,-5l17,-2l16,-6l17,-4l16,-6l17,-8l16,-3l17,-8l16,-6l17,-3l16,-6l17,-11l16,-9l17,-8l16,-7l17,-8l17,-8l16,-10l17,-8l16,-7l17,-7l16,-7l17,-5l16,-12l17,-13l16,-7l17,-9l16,-2l17,-8l16,-10l17,-7l16,-8l17,-10l16,-5l17,-3l16,-6l17,-3l16,-14l17,-10l16,-10l17,-19l17,-19l16,-14l17,-13l16,-13l17,-15l16,-15l17,-17l16,-13l17,-15l16,-15l17,-13l16,-8l17,-17l16,-7l17,-8l16,-13l17,-16l16,-19l17,-18l16,-15l17,-19l16,-17l17,-22l16,-19l17,-25l17,-19l16,-14l17,-10l16,-17l17,-10l16,-8l17,-9l16,-11l17,-12l16,-12l17,-13l16,-8l17,-13l16,-7l17,-9l16,-14l17,-11l16,-19l17,-7l16,-17l17,-10l16,-10l17,-10l17,-14l16,-11l17,-8l16,-7l17,-7l16,-6l17,-11l16,-9l17,-9l16,-8l17,-13l16,-7l17,-13l16,-12l17,-14l16,-10l17,-14l16,-11l17,-9l16,-12l17,0l16,-8l17,-7l16,-6l17,-9l17,-8l16,-13l17,-7l16,-11l17,-13l16,-5l17,-5l16,-7l17,-8l16,-7l17,-10l16,-12l17,-7l16,-2l17,-4l16,-11l17,-10l16,-6l17,-9l16,-4l17,-1l16,-1l17,1l16,-6l17,-4l17,-5l16,-11l17,-8l16,-11l17,-4l16,-8l17,-3l16,-4l17,-7l16,-2l17,-2l16,-8l17,-5l16,-3l17,-5l16,-6l17,-2l16,-2l17,-8l16,-14l17,-7l16,-9l17,-5l17,-8l16,-6l17,-8l16,-10l17,-6l16,-9l17,-6l16,-5l17,-5l16,-3l17,-9l16,-1l17,-5l16,5l17,0l16,-3l17,-1l16,-2l17,1l16,6l17,5l16,3l17,2l16,6l17,2l17,4l16,7l17,13l16,3l17,2l16,5l17,9l16,9l17,4l16,10l17,5l16,10l17,12l16,5l17,10l16,15l17,18l16,9l17,9l16,4l17,7l16,14l17,15l16,6l17,2l17,8l16,7l17,8l16,3l17,7l16,3l17,8l16,8l17,7l16,12l17,14l16,13l17,10l16,9l17,14l16,15l17,17l16,11l17,8l16,16l17,9l16,3l17,7l17,8l16,8l17,14l16,13l17,10l16,9l17,15l16,20l17,10l16,15l17,12l16,15l17,11l16,11l17,15l16,12l17,11l16,9l17,12l16,8l17,10l16,11l17,12l16,7l17,5l17,6l16,6l17,8l16,14l17,21l16,16l17,13l16,13l17,13l16,14l17,15l16,17l17,15l16,7l17,10l16,13l17,11l16,6l17,17l16,17l17,13l16,14l17,16l16,18l17,12l17,13l16,13l17,16l16,15l17,15l16,17l17,18l16,18l17,16l16,12l17,9l16,12l17,13l16,12l17,8l16,9l17,10l16,4l17,4l16,11l17,17l16,8l17,12l17,15l16,12l17,12l16,9l17,12l16,9l17,6l16,12l17,10l16,3l17,6l16,7l17,8l16,5l17,8l16,6l17,3l16,6l17,3l16,4l17,6l16,5l17,8l16,6l0,-646l-16,-2l-17,-6l-16,-6l-17,-4l-16,-4l-17,-7l-16,-10l-17,-11l-16,-10l-17,-9l-16,-6l-17,-7l-16,-9l-17,-17l-16,-10l-17,-8l-16,-3l-17,-6l-16,-10l-17,-8l-16,-9l-17,-7l-16,-12l-17,-8l-17,-12l-16,-9l-17,-10l-16,-10l-17,-14l-16,-12l-17,-12l-16,-13l-17,-10l-16,-14l-17,-15l-16,-14l-17,-13l-16,-14l-17,-15l-16,-18l-17,-10l-16,-11l-17,-12l-16,-11l-17,-13l-16,-15l-17,-17l-17,-15l-16,-13l-17,-10l-16,-14l-17,-15l-16,-14l-17,-10l-16,-13l-17,-11l-16,-13l-17,-13l-16,-16l-17,-14l-16,-17l-17,-15l-16,-13l-17,-15l-16,-11l-17,-12l-16,-11l-17,-9l-16,-8l-17,-10l-16,-9l-17,-11l-17,-11l-16,-14l-17,-12l-16,-12l-17,-7l-16,-8l-17,-13l-16,-15l-17,-14l-16,-12l-17,-9l-16,-7l-17,-9l-16,-12l-17,-11l-16,-14l-17,-10l-16,-12l-17,-11l-16,-9l-17,-7l-16,-8l-17,-7l-16,-7l-17,-9l-17,-7l-16,-12l-17,-10l-16,-9l-17,-9l-16,-9l-17,-10l-16,-6l-17,-8l-16,-5l-17,-12l-16,-11l-17,-10l-16,-4l-17,-11l-16,-4l-17,-8l-16,-12l-17,-7l-16,-10l-17,-8l-16,-7l-17,-8l-17,-6l-16,-4l-17,-5l-16,-8l-17,-6l-16,-8l-17,-11l-16,-8l-17,-4l-16,-6l-17,-3l-16,-4l-17,-6l-16,-6l-17,-6l-16,-7l-17,-6l-16,-6l-17,-6l-16,-3l-17,-4l-16,-4l-17,-4l-16,-4l-17,-4l-17,-2l-16,-3l-17,-2l-16,0l-17,2l-16,-2l-17,0l-16,-4l-17,2l-16,4l-17,-4l-16,0l-17,2l-16,0l-17,-2l-16,0l-17,4l-16,1l-17,2l-16,2l-17,2l-16,4l-17,6l-16,4l-17,4l-17,5l-16,6l-17,6l-16,8l-17,5l-16,6l-17,2l-16,8l-17,6l-16,0l-17,3l-16,6l-17,4l-16,6l-17,4l-16,5l-17,6l-16,6l-17,10l-16,5l-17,6l-16,4l-17,2l-17,2l-16,4l-17,7l-16,6l-17,8l-16,6l-17,5l-16,6l-17,6l-16,8l-17,2l-16,2l-17,0l-16,0l-17,2l-16,1l-17,0l-16,10l-17,6l-16,6l-17,5l-16,8l-17,4l-16,4l-17,2l-17,2l-16,2l-17,2l-16,1l-17,4l-16,8l-17,7l-16,6l-17,0l-16,1l-17,4l-16,3l-17,6l-16,5l-17,4l-16,3l-17,9l-16,8l-17,9l-16,11l-17,8l-16,7l-17,9l-16,10l-17,8l-17,8l-16,6l-17,5l-16,9l-17,12l-16,11l-17,15l-16,11l-17,15l-16,14l-17,13l-16,13l-17,15l-16,9l-17,15l-16,12l-17,9l-16,11l-17,6l-16,10l-17,12l-16,14l-17,10l-17,18l-16,21l-17,15l-16,14l-17,13l-16,11l-17,6l-16,9l-17,12l-16,15l-17,16l-16,9l-17,6l-16,10l-17,9l-16,6l-17,4l-16,5l-17,9l-16,4l-17,7l-16,15l-17,16l-16,15l-17,19l-17,12l-16,18l-17,15l-16,15l-17,7l-16,13l-17,7l-16,4l-17,12l-16,11l-17,13l-16,16l-17,19l-16,10l-17,5l-16,2l-17,4l-16,11l-17,11l-16,8l-17,9l-16,14l-17,16l-16,13l-17,18l-17,16l-16,14l-17,6l-16,8l-17,3l-16,2l-17,11l-16,8l-17,6l-16,8l-17,11l-16,6l-17,10l-16,8l-17,8l-16,7l-17,6l-16,3l-17,7l-16,7l-17,11l-16,12l-17,11l-17,5l-16,5l-17,10l-16,8l-17,9l-16,3l-17,1l-16,-5l-17,-1l-16,4l-17,4l-16,1l-17,3l-16,0l-17,0l-16,-1l-17,-3l-16,-5l-17,-3l-16,-6l-17,-7l-16,-6l-17,-6l-16,-2Z" fill="#ba4545"></path><path fill-opacity="0.188" stroke="none" d="M767,2449l16,6l17,4l16,5l17,7l16,5l17,6l16,6l17,2l16,2l17,0l16,5l17,0l16,1l17,8l16,1l17,3l16,1l17,-5l16,-3l17,-4l16,-3l17,-1l16,-1l17,-1l17,-3l16,-4l17,-2l16,-6l17,-7l16,-6l17,-5l16,-6l17,-2l16,-5l17,-10l16,-7l17,-9l16,-6l17,-4l16,-4l17,-4l16,-4l17,-4l16,-6l17,-8l16,-5l17,-10l17,-10l16,-7l17,-8l16,-8l17,-9l16,-9l17,-10l16,-11l17,-9l16,-7l17,-8l16,-6l17,-5l16,-7l17,-8l16,-7l17,-6l16,-5l17,-4l16,-6l17,-6l16,-12l17,-10l16,-12l17,-14l17,-17l16,-16l17,-14l16,-15l17,-13l16,-14l17,-16l16,-12l17,-17l16,-16l17,-10l16,-10l17,-10l16,-10l17,-14l16,-13l17,-14l16,-17l17,-18l16,-18l17,-17l16,-16l17,-21l16,-23l17,-19l17,-17l16,-19l17,-15l16,-21l17,-13l16,-15l17,-17l16,-12l17,-13l16,-13l17,-18l16,-14l17,-11l16,-13l17,-9l16,-12l17,-18l16,-18l17,-12l16,-13l17,-7l16,-10l17,-10l17,-10l16,-12l17,-11l16,-6l17,-9l16,-8l17,-9l16,-11l17,-10l16,-3l17,-9l16,-7l17,-11l16,-6l17,-6l16,-10l17,-11l16,-8l17,-7l16,-4l17,-4l16,-7l17,-6l16,-4l17,-5l17,-4l16,-11l17,-9l16,-9l17,-11l16,-12l17,-10l16,-6l17,-3l16,-6l17,-11l16,-11l17,-5l16,-4l17,0l16,-12l17,-3l16,-4l17,-5l16,-8l17,-6l16,-2l17,-1l16,-1l17,-2l17,-6l16,-9l17,-7l16,-8l17,-7l16,-2l17,-4l16,-4l17,-4l16,-5l17,-3l16,-3l17,-6l16,-5l17,-5l16,-10l17,-4l16,-6l17,-6l16,-10l17,-15l16,-10l17,-10l17,-10l16,-6l17,-6l16,-6l17,-6l16,-8l17,-12l16,-6l17,-4l16,-3l17,-5l16,-1l17,-3l16,-3l17,-1l16,-2l17,-2l16,0l17,-2l16,4l17,5l16,2l17,0l16,7l17,9l17,5l16,5l17,6l16,8l17,6l16,6l17,7l16,5l17,6l16,7l17,5l16,7l17,6l16,9l17,4l16,10l17,13l16,14l17,11l16,8l17,6l16,10l17,11l16,8l17,7l17,6l16,7l17,7l16,11l17,6l16,2l17,6l16,9l17,11l16,11l17,14l16,14l17,11l16,8l17,12l16,14l17,17l16,13l17,17l16,13l17,12l16,7l17,6l17,5l16,7l17,12l16,16l17,14l16,14l17,12l16,15l17,11l16,17l17,12l16,10l17,11l16,13l17,13l16,16l17,12l16,13l17,7l16,10l17,12l16,13l17,12l16,9l17,5l17,5l16,4l17,8l16,18l17,20l16,16l17,16l16,9l17,11l16,9l17,11l16,12l17,14l16,13l17,13l16,11l17,14l16,12l17,12l16,13l17,12l16,17l17,13l16,15l17,15l17,13l16,12l17,14l16,14l17,14l16,18l17,20l16,19l17,15l16,11l17,9l16,12l17,14l16,14l17,14l16,14l17,11l16,10l17,9l16,10l17,12l16,10l17,10l17,13l16,12l17,10l16,13l17,7l16,11l17,6l16,11l17,9l16,10l17,8l16,8l17,9l16,8l17,7l16,12l17,9l16,5l17,6l16,3l17,4l16,8l17,3l16,7l0,-309l-16,-2l-17,-7l-16,-7l-17,-5l-16,-6l-17,-7l-16,-9l-17,-13l-16,-8l-17,-10l-16,-4l-17,-6l-16,-10l-17,-10l-16,-10l-17,-9l-16,-7l-17,-7l-16,-8l-17,-10l-16,-9l-17,-9l-16,-10l-17,-8l-17,-14l-16,-15l-17,-12l-16,-13l-17,-14l-16,-13l-17,-17l-16,-16l-17,-13l-16,-13l-17,-13l-16,-12l-17,-13l-16,-18l-17,-16l-16,-20l-17,-15l-16,-16l-17,-13l-16,-11l-17,-12l-16,-13l-17,-15l-17,-16l-16,-15l-17,-15l-16,-13l-17,-15l-16,-14l-17,-12l-16,-12l-17,-11l-16,-11l-17,-11l-16,-11l-17,-15l-16,-15l-17,-15l-16,-12l-17,-10l-16,-14l-17,-17l-16,-15l-17,-13l-16,-8l-17,-7l-16,-8l-17,-10l-17,-13l-16,-11l-17,-14l-16,-15l-17,-13l-16,-11l-17,-11l-16,-14l-17,-14l-16,-13l-17,-11l-16,-10l-17,-9l-16,-12l-17,-11l-16,-10l-17,-12l-16,-14l-17,-12l-16,-11l-17,-8l-16,-8l-17,-12l-16,-8l-17,-6l-17,-11l-16,-8l-17,-10l-16,-11l-17,-11l-16,-10l-17,-11l-16,-10l-17,-8l-16,-8l-17,-10l-16,-11l-17,-7l-16,-6l-17,-8l-16,-8l-17,-8l-16,-9l-17,-9l-16,-6l-17,-7l-16,-8l-17,-8l-17,-5l-16,-8l-17,-6l-16,-8l-17,-9l-16,-8l-17,-8l-16,-9l-17,-4l-16,-6l-17,-6l-16,-5l-17,-8l-16,-6l-17,-4l-16,-7l-17,-6l-16,-6l-17,-6l-16,-6l-17,-7l-16,-8l-17,-6l-16,-4l-17,-3l-17,-2l-16,-4l-17,-2l-16,-2l-17,-4l-16,-4l-17,-2l-16,-2l-17,-2l-16,0l-17,0l-16,2l-17,2l-16,0l-17,2l-16,-2l-17,4l-16,2l-17,2l-16,2l-17,2l-16,4l-17,2l-16,7l-17,4l-17,6l-16,8l-17,7l-16,8l-17,8l-16,6l-17,3l-16,6l-17,6l-16,4l-17,4l-16,4l-17,5l-16,4l-17,8l-16,8l-17,9l-16,6l-17,8l-16,7l-17,8l-16,8l-17,4l-17,5l-16,4l-17,6l-16,9l-17,9l-16,8l-17,3l-16,7l-17,5l-16,5l-17,7l-16,2l-17,1l-16,3l-17,4l-16,4l-17,4l-16,6l-17,9l-16,7l-17,9l-16,13l-17,4l-16,2l-17,0l-17,3l-16,0l-17,4l-16,1l-17,2l-16,6l-17,9l-16,11l-17,7l-16,5l-17,2l-16,3l-17,6l-16,7l-17,7l-16,7l-17,10l-16,11l-17,8l-16,11l-17,11l-16,10l-17,7l-16,9l-17,7l-17,7l-16,7l-17,2l-16,13l-17,13l-16,19l-17,13l-16,15l-17,10l-16,15l-17,15l-16,12l-17,13l-16,9l-17,9l-16,14l-17,11l-16,12l-17,14l-16,13l-17,13l-16,14l-17,12l-17,18l-16,19l-17,14l-16,12l-17,12l-16,12l-17,14l-16,14l-17,14l-16,16l-17,14l-16,13l-17,5l-16,6l-17,13l-16,12l-17,14l-16,11l-17,9l-16,11l-17,6l-16,13l-17,16l-16,16l-17,17l-17,17l-16,15l-17,15l-16,15l-17,9l-16,8l-17,9l-16,9l-17,12l-16,15l-17,16l-16,15l-17,11l-16,9l-17,7l-16,0l-17,6l-16,6l-17,16l-16,9l-17,8l-16,9l-17,12l-16,12l-17,15l-17,15l-16,14l-17,12l-16,7l-17,1l-16,6l-17,4l-16,7l-17,7l-16,6l-17,10l-16,10l-17,7l-16,5l-17,6l-16,5l-17,3l-16,6l-17,4l-16,6l-17,9l-16,14l-17,10l-17,7l-16,1l-17,7l-16,8l-17,6l-16,3l-17,1l-16,-6l-17,-1l-16,2l-17,-2l-16,2l-17,4l-16,-1l-17,2l-16,-4l-17,-5l-16,-5l-17,-8l-16,-10l-17,-5l-16,-2l-17,-7l-16,-4Z" fill="#ba4545"></path><g clip-path="url(#plot-sample-bounds-scaled-3)"><path stroke-width="20" stroke="#ba4545" d="M767,2290l16,5l17,6l16,4l17,6l16,7l17,4l16,5l17,4l16,1l17,1l16,0l17,-1l16,1l17,3l16,-1l17,1l16,2l17,-2l16,-4l17,-4l16,-5l17,-5l16,-3l17,-4l17,-6l16,-10l17,-6l16,-7l17,-6l16,-4l17,-4l16,-5l17,-4l16,-7l17,-8l16,-9l17,-8l16,-7l17,-6l16,-6l17,-5l16,-5l17,-5l16,-7l17,-10l16,-10l17,-13l17,-12l16,-10l17,-10l16,-9l17,-9l16,-9l17,-9l16,-9l17,-7l16,-4l17,-7l16,-8l17,-9l16,-13l17,-11l16,-11l17,-10l16,-5l17,-6l16,-8l17,-7l16,-13l17,-13l16,-13l17,-16l17,-17l16,-14l17,-14l16,-13l17,-10l16,-9l17,-12l16,-12l17,-14l16,-12l17,-11l16,-9l17,-9l16,-11l17,-12l16,-14l17,-14l16,-16l17,-14l16,-14l17,-15l16,-15l17,-17l16,-20l17,-18l17,-14l16,-16l17,-15l16,-14l17,-13l16,-12l17,-12l16,-12l17,-12l16,-11l17,-14l16,-13l17,-14l16,-11l17,-10l16,-12l17,-14l16,-16l17,-12l16,-13l17,-8l16,-8l17,-8l17,-9l16,-9l17,-9l16,-9l17,-9l16,-8l17,-11l16,-11l17,-9l16,-6l17,-8l16,-7l17,-8l16,-6l17,-6l16,-7l17,-9l16,-9l17,-8l16,-6l17,-3l16,-5l17,-5l16,-5l17,-4l17,-4l16,-8l17,-7l16,-9l17,-9l16,-9l17,-7l16,-7l17,-4l16,-6l17,-6l16,-7l17,-3l16,-3l17,-5l16,-7l17,-6l16,-6l17,-5l16,-6l17,-6l16,-6l17,-4l16,-5l17,-4l17,-4l16,-8l17,-8l16,-9l17,-6l16,-5l17,-7l16,-5l17,-6l16,-4l17,-5l16,-5l17,-5l16,-4l17,-4l16,-7l17,-6l16,-5l17,-6l16,-9l17,-9l16,-7l17,-8l17,-6l16,-6l17,-5l16,-4l17,-6l16,-4l17,-6l16,-4l17,-3l16,0l17,-4l16,0l17,-2l16,-2l17,0l16,-2l17,0l16,0l17,2l16,2l17,4l16,3l17,0l16,4l17,6l17,4l16,6l17,6l16,5l17,6l16,4l17,8l16,6l17,6l16,7l17,6l16,7l17,7l16,6l17,7l16,7l17,10l16,11l17,10l16,8l17,9l16,9l17,9l16,7l17,6l17,8l16,7l17,6l16,9l17,8l16,7l17,7l16,8l17,9l16,9l17,11l16,11l17,11l16,8l17,10l16,12l17,12l16,12l17,11l16,12l17,11l16,7l17,8l17,6l16,8l17,11l16,11l17,10l16,11l17,12l16,15l17,10l16,13l17,12l16,11l17,11l16,10l17,13l16,13l17,14l16,13l17,11l16,10l17,11l16,12l17,13l16,10l17,8l17,8l16,7l17,8l16,14l17,17l16,16l17,15l16,14l17,10l16,12l17,12l16,16l17,14l16,13l17,12l16,14l17,12l16,13l17,11l16,15l17,12l16,15l17,13l16,15l17,15l17,15l16,13l17,14l16,13l17,13l16,16l17,16l16,19l17,16l16,13l17,10l16,12l17,13l16,13l17,13l16,13l17,13l16,12l17,10l16,11l17,12l16,11l17,12l17,11l16,11l17,10l16,12l17,10l16,8l17,7l16,9l17,8l16,10l17,9l16,10l17,8l16,7l17,9l16,8l17,9l16,8l17,6l16,5l17,5l16,6l17,6l16,5" fill="none" stroke-opacity="0.3764705882352941"></path></g><path fill-opacity="0.251" stroke="none" d="M758,2238l9,0l0,247l-9,0ZM767,2115l16,0l0,308l-16,0ZM783,2115l17,0l0,616l-17,0ZM800,1992l16,0l0,678l-16,0ZM816,2115l17,0l0,185l-17,0ZM833,1807l16,0l0,863l-16,0ZM849,1622l17,0l0,924l-17,0ZM866,1499l16,0l0,924l-16,0ZM882,1622l17,0l0,863l-17,0ZM899,1992l16,0l0,678l-16,0ZM915,1807l17,0l0,863l-17,0ZM932,1807l16,0l0,370l-16,0ZM948,1868l17,0l0,493l-17,0ZM965,2300l16,0l0,493l-16,0ZM981,2793l17,0l0,123l-17,0ZM998,2608l16,0l0,431l-16,0ZM1014,2361l17,0l0,493l-17,0ZM1031,2238l16,0l0,616l-16,0ZM1047,2053l17,0l0,678l-17,0ZM1064,1992l16,0l0,739l-16,0ZM1080,2177l17,0l0,493l-17,0ZM1097,2238l16,0l0,247l-16,0ZM1113,2300l17,0l0,185l-17,0ZM1130,2485l16,0l0,493l-16,0ZM1146,2423l17,0l0,616l-17,0ZM1163,2485l17,0l0,369l-17,0ZM1180,2238l16,0l0,678l-16,0ZM1196,2238l17,0l0,740l-17,0ZM1213,1992l16,0l0,986l-16,0ZM1229,1807l17,0l0,986l-17,0ZM1246,1499l16,0l0,924l-16,0ZM1262,1807l17,0l0,739l-17,0ZM1279,2238l16,0l0,370l-16,0ZM1295,2177l17,0l0,554l-17,0ZM1312,2053l16,0l0,678l-16,0ZM1328,2115l17,0l0,246l-17,0ZM1345,2053l16,0l0,247l-16,0ZM1361,1992l17,0l0,431l-17,0ZM1378,2115l16,0l0,185l-16,0ZM1394,2361l17,0l0,62l-17,0ZM1411,2300l16,0l0,185l-16,0ZM1427,2115l17,0l0,308l-17,0ZM1444,2300l16,0l0,61l-16,0ZM1460,2361l17,0l0,247l-17,0ZM1477,2300l16,0l0,431l-16,0ZM1493,2177l17,0l0,677l-17,0ZM1510,2177l16,0l0,246l-16,0ZM1526,1992l17,0l0,369l-17,0ZM1543,2053l17,0l0,124l-17,0ZM1560,1745l16,0l0,740l-16,0ZM1576,1684l17,0l0,986l-17,0ZM1593,2053l16,0l0,308l-16,0ZM1609,2361l17,0l0,124l-17,0ZM1626,2423l16,0l0,123l-16,0ZM1642,2053l17,0l0,493l-17,0ZM1659,1992l16,0l0,678l-16,0ZM1675,1930l17,0l0,678l-17,0ZM1692,1745l16,0l0,863l-16,0ZM1708,1807l17,0l0,493l-17,0ZM1725,1622l16,0l0,555l-16,0ZM1741,1684l17,0l0,677l-17,0ZM1758,1622l16,0l0,739l-16,0ZM1774,1437l17,0l0,924l-17,0ZM1791,1314l16,0l0,924l-16,0ZM1807,1191l17,0l0,924l-17,0ZM1824,1560l16,0l0,308l-16,0ZM1840,1375l17,0l0,493l-17,0ZM1857,1314l16,0l0,616l-16,0ZM1873,1252l17,0l0,616l-17,0ZM1890,1437l16,0l0,370l-16,0ZM1906,1684l17,0l0,431l-17,0ZM1923,1560l16,0l0,925l-16,0ZM1939,1252l17,0l0,678l-17,0ZM1956,1375l17,0l0,617l-17,0ZM1973,1868l16,0l0,555l-16,0ZM1989,2300l17,0l0,185l-17,0ZM2006,2238l16,0l0,185l-16,0ZM2022,2177l17,0l0,123l-17,0ZM2039,2053l16,0l0,185l-16,0ZM2055,2053l17,0l0,124l-17,0ZM2072,1807l16,0l0,246l-16,0ZM2088,1684l17,0l0,431l-17,0ZM2105,1868l16,0l0,309l-16,0ZM2121,1992l17,0l0,308l-17,0ZM2138,1684l16,0l0,739l-16,0ZM2154,1622l17,0l0,678l-17,0ZM2171,1560l16,0l0,678l-16,0ZM2187,1684l17,0l0,369l-17,0ZM2204,1437l16,0l0,555l-16,0ZM2220,1437l17,0l0,493l-17,0ZM2237,1252l16,0l0,678l-16,0ZM2253,1191l17,0l0,493l-17,0ZM2270,1499l16,0l0,369l-16,0ZM2286,1930l17,0l0,123l-17,0ZM2303,1684l16,0l0,554l-16,0ZM2319,1745l17,0l0,370l-17,0ZM2336,1560l16,0l0,740l-16,0ZM2352,1437l17,0l0,555l-17,0ZM2369,1252l17,0l0,863l-17,0ZM2386,1129l16,0l0,678l-16,0ZM2402,1067l17,0l0,678l-17,0ZM2419,1067l16,0l0,678l-16,0ZM2435,1314l17,0l0,370l-17,0ZM2452,1252l16,0l0,432l-16,0ZM2468,1191l17,0l0,677l-17,0ZM2485,944l16,0l0,801l-16,0ZM2501,698l17,0l0,739l-17,0ZM2518,1129l16,0l0,370l-16,0ZM2534,944l17,0l0,616l-17,0ZM2551,882l16,0l0,617l-16,0ZM2567,1191l17,0l0,493l-17,0ZM2584,1684l16,0l0,554l-16,0ZM2600,2177l17,0l0,123l-17,0ZM2617,1992l16,0l0,185l-16,0ZM2633,1622l17,0l0,493l-17,0ZM2650,1375l16,0l0,740l-16,0ZM2666,1499l17,0l0,246l-17,0ZM2683,1314l16,0l0,431l-16,0ZM2699,1375l17,0l0,370l-17,0ZM2716,1191l16,0l0,986l-16,0ZM2732,944l17,0l0,986l-17,0ZM2749,1191l17,0l0,369l-17,0ZM2766,1191l16,0l0,369l-16,0ZM2782,1006l17,0l0,493l-17,0ZM2799,1252l16,0l0,308l-16,0ZM2815,1499l17,0l0,369l-17,0ZM2832,1314l16,0l0,554l-16,0ZM2848,1252l17,0l0,493l-17,0ZM2865,1191l16,0l0,554l-16,0ZM2881,1684l17,0l0,184l-17,0ZM2898,1375l16,0l0,493l-16,0ZM2914,1129l17,0l0,678l-17,0ZM2931,1006l16,0l0,678l-16,0ZM2947,944l17,0l0,678l-17,0ZM2964,821l16,0l0,554l-16,0ZM2980,1067l17,0l0,493l-17,0ZM2997,1191l16,0l0,369l-16,0ZM3013,882l17,0l0,678l-17,0ZM3030,821l16,0l0,554l-16,0ZM3046,882l17,0l0,432l-17,0ZM3063,1191l16,0l0,739l-16,0ZM3079,1499l17,0l0,493l-17,0ZM3096,1314l16,0l0,493l-16,0ZM3112,1314l17,0l0,431l-17,0ZM3129,1129l16,0l0,555l-16,0ZM3145,1375l17,0l0,124l-17,0ZM3162,698l17,0l0,677l-17,0ZM3179,698l16,0l0,677l-16,0ZM3195,882l17,0l0,555l-17,0ZM3212,1129l16,0l0,246l-16,0ZM3228,944l17,0l0,493l-17,0ZM3245,821l16,0l0,554l-16,0ZM3261,944l17,0l0,431l-17,0ZM3278,1067l16,0l0,432l-16,0ZM3294,1191l17,0l0,369l-17,0ZM3311,1499l16,0l0,123l-16,0ZM3327,1129l17,0l0,431l-17,0ZM3344,1067l16,0l0,432l-16,0ZM3360,759l17,0l0,740l-17,0ZM3377,636l16,0l0,739l-16,0ZM3393,574l17,0l0,678l-17,0ZM3410,636l16,0l0,493l-16,0ZM3426,759l17,0l0,555l-17,0ZM3443,944l16,0l0,431l-16,0ZM3459,759l17,0l0,616l-17,0ZM3476,759l16,0l0,555l-16,0ZM3492,944l17,0l0,370l-17,0ZM3509,1314l16,0l0,123l-16,0ZM3525,1067l17,0l0,308l-17,0ZM3542,1129l16,0l0,246l-16,0ZM3558,759l17,0l0,555l-17,0ZM3575,759l17,0l0,432l-17,0ZM3592,944l16,0l0,308l-16,0ZM3608,1129l17,0l0,308l-17,0ZM3625,1067l16,0l0,308l-16,0ZM3641,1067l17,0l0,308l-17,0ZM3658,759l16,0l0,616l-16,0ZM3674,636l17,0l0,616l-17,0ZM3691,574l16,0l0,370l-16,0ZM3707,636l17,0l0,616l-17,0ZM3724,882l16,0l0,432l-16,0ZM3740,759l17,0l0,493l-17,0ZM3757,513l16,0l0,554l-16,0ZM3773,513l17,0l0,369l-17,0ZM3790,759l16,0l0,493l-16,0ZM3806,698l17,0l0,677l-17,0ZM3823,574l16,0l0,370l-16,0ZM3839,759l17,0l0,308l-17,0ZM3856,759l16,0l0,370l-16,0Z" fill="#000"></path><path stroke-width="10" stroke="#4646b9" d="M758,2515l2,0M758,2515l4,0M758,2515l6,0M758,2496l8,0M758,2478l12,0M758,2453l16,0M760,2453l16,0M762,2453l16,0M764,2453l16,0M766,2453l16,0M770,2755l16,0M774,2835l17,0M776,2835l17,0M778,2835l17,0M780,2835l17,0M782,2835l17,0" fill="none" stroke-opacity="1.0"></path><path stroke-width="10" stroke="#ba4545" d="M758,2176l2,0M758,2163l4,0M758,2163l6,0M758,2163l8,0M758,2163l12,0M758,2163l16,0M760,2163l16,0M762,2139l16,0M764,2139l16,0M766,2139l16,0M770,2139l16,0M774,2139l17,0M776,2095l17,0M778,2065l17,0M780,2065l17,0M782,2065l17,0" fill="none" stroke-opacity="1.0"></path><line stroke-width="10" stroke="#000" x2="6780" y1="2792.5" x1="750" fill="none" y2="2792.5" stroke-opacity="0.25098039215686274"></line></g><g transform="scale(0.1)"></g><g stroke-width="1" stroke="#000" fill="none" stroke-opacity="0.072"><line x2="126.2" y1="10" x1="126.2" y2="350" stroke-opacity="0.12"></line><line x2="172.5" y1="10" x1="172.5" y2="350" stroke-opacity="0.12"></line><line x2="223.7" y1="10" x1="223.7" y2="350" stroke-opacity="0.12"></line><line x2="273.2" y1="10" x1="273.2" y2="350" stroke-opacity="0.12"></line><line x2="324.5" y1="10" x1="324.5" y2="350" stroke-opacity="0.12"></line><line x2="374" y1="10" x1="374" y2="350" stroke-opacity="0.12"></line><line x2="425.2" y1="10" x1="425.2" y2="350" stroke-opacity="0.12"></line><line x2="476.4" y1="10" x1="476.4" y2="350" stroke-opacity="0.12"></line><line x2="526" y1="10" x1="526" y2="350" stroke-opacity="0.12"></line><line x2="577.2" y1="10" x1="577.2" y2="350" stroke-opacity="0.12"></line><line x2="626.8" y1="10" x1="626.8" y2="350" stroke-opacity="0.12"></line><line x2="681" y1="340.8" x1="72" y2="340.8"></line><line x2="681" y1="310" x1="72" y2="310"></line><line x2="681" y1="279.2" x1="72" y2="279.2"></line><line x2="681" y1="248.4" x1="72" y2="248.4"></line><line x2="681" y1="217.6" x1="72" y2="217.6"></line><line x2="681" y1="186.7" x1="72" y2="186.7"></line><line x2="681" y1="155.9" x1="72" y2="155.9"></line><line x2="681" y1="125.1" x1="72" y2="125.1"></line><line x2="681" y1="94.3" x1="72" y2="94.3"></line><line x2="681" y1="63.5" x1="72" y2="63.5"></line><line x2="681" y1="32.7" x1="72" y2="32.7"></line></g><g><rect fill-opacity="0.004" y="10" x="75" height="335" width="51.2" fill="#fff"></rect><text stroke="none" y="361.5" text-anchor="middle" x="100.6">1月</text></g><g><rect fill-opacity="0.004" y="10" x="126.2" height="335" width="46.3" fill="#fff"></rect><text stroke="none" y="361.5" text-anchor="middle" x="149.3">2月</text></g><g><rect fill-opacity="0.004" y="10" x="172.5" height="335" width="51.2" fill="#fff"></rect><text stroke="none" y="361.5" text-anchor="middle" x="198.1">3月</text></g><g><rect fill-opacity="0.004" y="10" x="223.7" height="335" width="49.6" fill="#fff"></rect><text stroke="none" y="361.5" text-anchor="middle" x="248.5">4月</text></g><g><rect fill-opacity="0.004" y="10" x="273.2" height="335" width="51.2" fill="#fff"></rect><text stroke="none" y="361.5" text-anchor="middle" x="298.9">5月</text></g><g><rect fill-opacity="0.004" y="10" x="324.5" height="335" width="49.6" fill="#fff"></rect><text stroke="none" y="361.5" text-anchor="middle" x="349.2">6月</text></g><g><rect fill-opacity="0.004" y="10" x="374" height="335" width="51.2" fill="#fff"></rect><text stroke="none" y="361.5" text-anchor="middle" x="399.6">7月</text></g><g><rect fill-opacity="0.004" y="10" x="425.2" height="335" width="51.2" fill="#fff"></rect><text stroke="none" y="361.5" text-anchor="middle" x="450.8">8月</text></g><g></g><rect fill-opacity="0.004" y="10" x="476.4" height="335" width="49.6" fill="#fff"></rect><text stroke="none" y="361.5" text-anchor="middle" x="501.2">9月</text><g></g><rect fill-opacity="0.004" y="10" x="526" height="335" width="51.2" fill="#fff"></rect><text stroke="none" y="361.5" text-anchor="middle" x="551.6">10月</text><g></g><rect fill-opacity="0.004" y="10" x="577.2" height="335" width="49.6" fill="#fff"></rect><text stroke="none" y="361.5" text-anchor="middle" x="602">11月</text><g></g><rect fill-opacity="0.004" y="10" x="626.8" height="335" width="51.2" fill="#fff"></rect><text stroke="none" y="361.5" text-anchor="middle" x="652.4">12月</text><g stroke="none" fill="#666"><text y="346" text-anchor="end" x="71">-10°C</text><text y="346" x="682">-10°C</text><text y="315.2" text-anchor="end" x="71">-5°C</text><text y="315.2" x="682">-5°C</text><text y="284.4" text-anchor="end" x="71">0°C</text><text y="284.4" x="682">0°C</text><text y="253.6" text-anchor="end" x="71">5°C</text><text y="253.6" x="682">5°C</text><text y="222.8" text-anchor="end" x="71">10°C</text><text y="222.8" x="682">10°C</text><text y="191.9" text-anchor="end" x="71">15°C</text><text y="191.9" x="682">15°C</text><text y="161.1" text-anchor="end" x="71">20°C</text><text y="161.1" x="682">20°C</text><text y="130.3" text-anchor="end" x="71">25°C</text><text y="130.3" x="682">25°C</text><text y="99.5" text-anchor="end" x="71">30°C</text><text y="99.5" x="682">30°C</text><text y="68.7" text-anchor="end" x="71">35°C</text><text y="68.7" x="682">35°C</text><text y="37.9" text-anchor="end" x="71">40°C</text><text y="37.9" x="682">40°C</text></g><rect fill-opacity="0.000" stroke="none" y="5" x="75.8" height="5" width="24" fill="#fff"></rect><g><rect fill-opacity="0.004" stroke="none" y="10" x="75.8" height="335" width="24" fill="#fff"></rect><path stroke-width="5" stroke="#000" d="M95.3,192.5L80.3,177.5L95.3,162.5" stroke-linecap="round" stroke-linejoin="round" fill="none" stroke-opacity="0.3"></path><path stroke-width="3" stroke="#fff" d="M95.3,192.5L80.3,177.5L95.3,162.5" stroke-linecap="round" stroke-linejoin="round" fill="none" stroke-opacity="0.6"></path></g><rect fill-opacity="0.000" stroke="none" y="5" x="653.2" height="5" width="24" fill="#fff"></rect><g><rect fill-opacity="0.004" stroke="none" y="10" x="653.2" height="335" width="24" fill="#fff"></rect></g></svg>